<?xml version="1.0" encoding="utf-8"?>
<svg width="22" height="22" viewBox="0 0 22 22" xmlns="http://www.w3.org/2000/svg" xmlns:bx="https://www.boxy-svg.com/bx">
  <defs>
    <style>
			path {
				fill: rgba(255,255,255,0.4);
			}
		</style>
  </defs>
  <def/>
  <path d="M 20.524 5.609 C 19.541 3.883 18.207 2.517 16.521 1.51 C 14.836 0.503 12.996 0 11 0 C 9.004 0 7.164 0.504 5.479 1.51 C 3.793 2.517 2.459 3.883 1.475 5.609 C 0.492 7.334 0 9.219 0 11.261 C 0 13.715 0.699 15.922 2.098 17.882 C 3.497 19.842 5.304 21.198 7.519 21.951 C 7.777 22 7.968 21.965 8.092 21.848 C 8.216 21.731 8.278 21.584 8.278 21.409 C 8.278 21.379 8.276 21.116 8.271 20.617 C 8.266 20.118 8.264 19.683 8.264 19.312 L 7.934 19.37 C 7.724 19.41 7.46 19.427 7.14 19.422 C 6.82 19.417 6.488 19.383 6.144 19.319 C 5.8 19.256 5.48 19.109 5.184 18.88 C 4.889 18.65 4.679 18.349 4.554 17.978 L 4.411 17.64 C 4.316 17.416 4.165 17.166 3.96 16.893 C 3.755 16.619 3.547 16.433 3.337 16.336 L 3.237 16.262 C 3.17 16.213 3.108 16.154 3.051 16.086 C 2.993 16.018 2.95 15.949 2.922 15.881 C 2.893 15.812 2.917 15.756 2.993 15.712 C 3.07 15.668 3.208 15.646 3.409 15.646 L 3.695 15.69 C 3.886 15.729 4.122 15.846 4.404 16.042 C 4.686 16.237 4.917 16.491 5.099 16.804 C 5.318 17.205 5.583 17.51 5.894 17.721 C 6.204 17.931 6.517 18.036 6.832 18.036 C 7.147 18.036 7.419 18.011 7.648 17.963 C 7.877 17.914 8.092 17.84 8.292 17.743 C 8.378 17.088 8.612 16.584 8.994 16.232 C 8.45 16.174 7.961 16.086 7.526 15.968 C 7.092 15.851 6.643 15.66 6.18 15.396 C 5.717 15.132 5.332 14.805 5.027 14.414 C 4.721 14.023 4.471 13.509 4.275 12.874 C 4.079 12.239 3.982 11.505 3.982 10.675 C 3.982 9.491 4.359 8.485 5.113 7.654 C 4.76 6.764 4.793 5.767 5.213 4.663 C 5.49 4.574 5.901 4.641 6.445 4.86 C 6.989 5.08 7.388 5.269 7.641 5.425 C 7.894 5.581 8.097 5.714 8.25 5.821 C 9.138 5.567 10.055 5.44 11 5.44 C 11.945 5.44 12.862 5.567 13.75 5.821 L 14.294 5.469 C 14.666 5.234 15.106 5.019 15.612 4.824 C 16.118 4.629 16.505 4.575 16.772 4.663 C 17.202 5.767 17.24 6.764 16.887 7.654 C 17.641 8.485 18.018 9.492 18.018 10.675 C 18.018 11.506 17.92 12.241 17.725 12.881 C 17.529 13.522 17.276 14.035 16.966 14.421 C 16.655 14.807 16.269 15.133 15.805 15.396 C 15.342 15.66 14.893 15.851 14.459 15.968 C 14.025 16.086 13.535 16.174 12.991 16.233 C 13.487 16.672 13.736 17.366 13.736 18.315 L 13.736 21.408 C 13.736 21.584 13.795 21.731 13.915 21.848 C 14.034 21.965 14.223 22 14.481 21.95 C 16.696 21.198 18.503 19.842 19.902 17.881 C 21.3 15.922 22 13.715 22 11.261 C 21.999 9.218 21.507 7.334 20.524 5.609 Z" bx:origin="0.5 0.5"/>
</svg>
